<svg width="160" height="160" viewBox="0 0 160 160" fill="none" xmlns="http://www.w3.org/2000/svg">
  <rect width="160" height="160" rx="36" fill="#0D4FBF"/>
  <path d="M80 30C98.8182 30 114.073 45.2543 114.073 64.0726C114.073 84.6326 92.6197 103.294 82.979 111.005C81.2432 112.393 78.7568 112.393 77.021 111.005C67.3803 103.294 45.9274 84.6326 45.9274 64.0726C45.9274 45.2543 61.1818 30 80 30Z" fill="#FFD44D"/>
  <circle cx="80" cy="62" r="16" fill="#FFF9EC"/>
  <path d="M53 118.5C53 112.701 57.701 108 63.5 108H96.5C102.299 108 107 112.701 107 118.5C107 124.299 102.299 129 96.5 129H63.5C57.701 129 53 124.299 53 118.5Z" fill="#FF97C8"/>
</svg>
